<svg width="25" height="25" viewBox="0 0 25 25" fill="none" xmlns="http://www.w3.org/2000/svg">
<g clip-path="url(#clip0_1116_226)">
<path d="M7.74609 22.957C8.57452 22.957 9.24609 22.2855 9.24609 21.457C9.24609 20.6286 8.57452 19.957 7.74609 19.957C6.91767 19.957 6.24609 20.6286 6.24609 21.457C6.24609 22.2855 6.91767 22.957 7.74609 22.957Z" fill="#7CC84E"/>
<path d="M18.2461 22.957C19.0745 22.957 19.7461 22.2855 19.7461 21.457C19.7461 20.6286 19.0745 19.957 18.2461 19.957C17.4177 19.957 16.7461 20.6286 16.7461 21.457C16.7461 22.2855 17.4177 22.957 18.2461 22.957Z" fill="#7CC84E"/>
<path d="M3.98154 2.55996C3.94754 2.38994 3.85568 2.23695 3.7216 2.12702C3.58751 2.0171 3.41948 1.95703 3.24609 1.95703H0.246094V3.45703H2.63109L5.51064 17.8541C5.54464 18.0241 5.6365 18.1771 5.77059 18.287C5.90468 18.397 6.07271 18.457 6.24609 18.457H19.7461V16.957H6.86109L6.26109 13.957H19.7461C19.9167 13.957 20.0823 13.8989 20.2154 13.7921C20.3485 13.6853 20.4412 13.5364 20.4782 13.3698L22.1795 5.70703H20.6439L19.1447 12.457H5.96109L3.98154 2.55996Z" fill="#7CC84E"/>
<path d="M13.7461 4.95703V1.95703H12.2461V4.95703H9.24609V6.45703H12.2461V9.45703H13.7461V6.45703H16.7461V4.95703H13.7461Z" fill="#7CC84E"/>
</g>
<defs>
<clipPath id="clip0_1116_226">
<rect width="24" height="24" fill="white" transform="translate(0.246094 0.457031)"/>
</clipPath>
</defs>
</svg>
