<svg width="16" height="16" viewBox="0 0 16 16" fill="none" xmlns="http://www.w3.org/2000/svg">
<g clip-path="url(#clip0_907_11964)">
<path d="M14.0938 8.42411V4.78907C14.0938 3.47482 12.4466 2.44532 10.3438 2.44532C9.21249 2.44532 8.21327 2.74341 7.53127 3.22338V2.91407C7.53127 1.59981 5.88407 0.570312 3.78126 0.570312C1.66091 0.570312 0 1.59981 0 2.91407V12.2891C0 13.6033 1.66091 14.6328 3.78126 14.6328C5.20864 14.6328 6.42586 14.1584 7.06067 13.4426C7.2278 13.6317 7.43767 13.806 7.68752 13.9604C8.2763 14.3243 9.05314 14.5549 9.88921 14.6162C10.5295 15.1252 11.3392 15.4297 12.2187 15.4297C14.3037 15.4297 16 13.7475 16 11.6797C16 10.2881 15.2317 9.07124 14.0938 8.42411ZM6.59376 12.2891C6.59376 12.9542 5.4387 13.6953 3.78126 13.6953C2.1856 13.6953 0.937502 12.9824 0.937502 12.2891V11.9743C1.62535 12.4575 2.63622 12.7578 3.78126 12.7578C4.91254 12.7578 5.91176 12.4598 6.59376 11.9798V12.2891ZM6.59376 10.4141C6.59376 11.0792 5.4387 11.8203 3.78126 11.8203C2.1856 11.8203 0.937502 11.1074 0.937502 10.4141V10.0993C1.62535 10.5825 2.63622 10.8828 3.78126 10.8828C4.91254 10.8828 5.91176 10.5848 6.59376 10.1048V10.4141ZM6.59376 8.53908C6.59376 9.2042 5.4387 9.94533 3.78126 9.94533C2.1856 9.94533 0.937502 9.23239 0.937502 8.53908V8.2243C1.62535 8.70749 2.63622 9.00783 3.78126 9.00783C4.91254 9.00783 5.91176 8.70977 6.59376 8.22977V8.53908ZM6.59376 6.66407C6.59376 7.3292 5.4387 8.07033 3.78126 8.07033C2.1856 8.07033 0.937502 7.35739 0.937502 6.66407V6.34929C1.62535 6.83248 2.63622 7.13283 3.78126 7.13283C4.91254 7.13283 5.91176 6.83476 6.59376 6.35476V6.66407ZM6.59376 4.78907C6.59376 5.4542 5.4387 6.19532 3.78126 6.19532C2.18179 6.19532 0.937502 5.4802 0.937502 4.78907V4.47429C1.62535 4.95748 2.63622 5.25782 3.78126 5.25782C4.91254 5.25782 5.91176 4.95973 6.59376 4.47976V4.78907ZM3.78126 4.32032C2.18179 4.32032 0.937502 3.60519 0.937502 2.91407C0.937502 2.22691 2.17319 1.50781 3.78126 1.50781C5.4387 1.50781 6.59376 2.24894 6.59376 2.91407C6.59376 3.57919 5.4387 4.32032 3.78126 4.32032ZM10.3438 3.38282C12.0012 3.38282 13.1563 4.12394 13.1563 4.78907C13.1563 5.4542 12.0012 6.19532 10.3438 6.19532C8.68633 6.19532 7.53127 5.4542 7.53127 4.78907C7.53127 4.12394 8.68633 3.38282 10.3438 3.38282ZM7.53127 6.35476C8.21327 6.83473 9.21249 7.13283 10.3438 7.13283C11.4751 7.13283 12.4743 6.83476 13.1563 6.35479V6.66407C13.1563 7.3292 12.0012 8.07033 10.3438 8.07033C8.68633 8.07033 7.53127 7.3292 7.53127 6.66407V6.35476ZM7.53127 10.1102C7.83292 10.3211 8.1993 10.4975 8.61883 10.629C8.5423 10.8908 8.49367 11.1643 8.47627 11.4462C7.89339 11.177 7.53127 10.7953 7.53127 10.4141V10.1102ZM7.53127 12.2891V11.9851C7.81692 12.1846 8.16158 12.3534 8.55567 12.4831C8.63442 12.8425 8.76483 13.1827 8.93877 13.4956C8.0663 13.2278 7.53127 12.7344 7.53127 12.2891ZM7.53127 8.53908V8.22977C8.06614 8.60617 8.79614 8.87061 9.63193 8.96721C9.38608 9.20177 9.17218 9.46943 8.99696 9.76277C8.13045 9.51061 7.53127 9.02271 7.53127 8.53908ZM12.2188 14.4922C10.668 14.4922 9.40627 13.2305 9.40627 11.6797C9.40627 10.1289 10.668 8.8672 12.2188 8.8672C13.7868 8.8672 15.0625 10.1289 15.0625 11.6797C15.0625 13.2305 13.7868 14.4922 12.2188 14.4922Z" fill="#555656"/>
<path d="M12.2188 9.80469C11.1849 9.80469 10.3438 10.6458 10.3438 11.6797C10.3438 12.7136 11.1849 13.5547 12.2188 13.5547C13.2526 13.5547 14.0938 12.7136 14.0938 11.6797C14.0938 10.6458 13.2526 9.80469 12.2188 9.80469ZM12.2188 12.6172C11.7018 12.6172 11.2813 12.1966 11.2813 11.6797C11.2813 11.1628 11.7018 10.7422 12.2188 10.7422C12.7357 10.7422 13.1563 11.1628 13.1563 11.6797C13.1563 12.1966 12.7357 12.6172 12.2188 12.6172Z" fill="#555656"/>
</g>
<defs>
<clipPath id="clip0_907_11964">
<rect width="16" height="16" fill="white"/>
</clipPath>
</defs>
</svg>
