<svg width="23" height="21" viewBox="0 0 23 21" fill="none" xmlns="http://www.w3.org/2000/svg">
<path d="M19.9117 10.25V18.5C19.9117 18.8978 19.7536 19.2794 19.4723 19.5607C19.191 19.842 18.8095 20 18.4117 20H4.16165C3.76383 20 3.3823 19.842 3.10099 19.5607C2.81969 19.2794 2.66165 18.8978 2.66165 18.5V10.25M10.9117 3.875C10.9117 3.35583 10.7577 2.84831 10.4693 2.41663C10.1808 1.98495 9.77085 1.6485 9.2912 1.44982C8.81154 1.25114 8.28374 1.19915 7.77454 1.30044C7.26534 1.40173 6.79761 1.65173 6.4305 2.01885C6.06338 2.38596 5.81338 2.85369 5.71209 3.36289C5.6108 3.87209 5.66279 4.39989 5.86147 4.87954C6.06015 5.3592 6.3966 5.76917 6.82828 6.05761C7.25996 6.34605 7.76748 6.5 8.28665 6.5H10.9117M10.9117 3.875V6.5M10.9117 3.875C10.9117 3.35583 11.0656 2.84831 11.354 2.41663C11.6425 1.98495 12.0525 1.6485 12.5321 1.44982C13.0118 1.25114 13.5396 1.19915 14.0488 1.30044C14.558 1.40173 15.0257 1.65173 15.3928 2.01885C15.7599 2.38596 16.0099 2.85369 16.1112 3.36289C16.2125 3.87209 16.1605 4.39989 15.9618 4.87954C15.7632 5.3592 15.4267 5.76917 14.995 6.05761C14.5633 6.34605 14.0558 6.5 13.5367 6.5H10.9117M10.9117 6.5V20M2.28665 10.25H20.2867C20.9077 10.25 21.4117 9.746 21.4117 9.125V7.625C21.4117 7.004 20.9077 6.5 20.2867 6.5H2.28665C1.66565 6.5 1.16165 7.004 1.16165 7.625V9.125C1.16165 9.746 1.66565 10.25 2.28665 10.25Z" stroke="#4A782F" stroke-width="1.5" stroke-linecap="round" stroke-linejoin="round"/>
</svg>
