<svg width="14" height="14" viewBox="0 0 14 14" fill="none" xmlns="http://www.w3.org/2000/svg">
<path d="M6.9987 0.332031C10.6806 0.332031 13.6654 3.3168 13.6654 6.9987C13.6654 10.6806 10.6806 13.6654 6.9987 13.6654C3.3168 13.6654 0.332031 10.6806 0.332031 6.9987H1.66536C1.66536 9.94423 4.05318 12.332 6.9987 12.332C9.94423 12.332 12.332 9.94423 12.332 6.9987C12.332 4.05318 9.94423 1.66536 6.9987 1.66536C5.35612 1.66536 3.88698 2.40792 2.90864 3.57565L4.33203 4.9987H0.332031V0.998698L1.96307 2.62968C3.18538 1.22209 4.9881 0.332031 6.9987 0.332031ZM7.66536 3.66536L7.66523 6.72203L9.8271 8.8843L8.8843 9.8271L6.3319 7.27403L6.33203 3.66536H7.66536Z" fill="#555656"/>
</svg>
