<svg width="12" height="15" viewBox="0 0 12 15" fill="none" xmlns="http://www.w3.org/2000/svg">
<path d="M6 14.8185L1.75736 10.5759C-0.585787 8.23272 -0.585787 4.43376 1.75736 2.09061C4.10051 -0.252535 7.89947 -0.252535 10.2427 2.09061C12.5858 4.43376 12.5858 8.23272 10.2427 10.5759L6 14.8185ZM9.2998 9.63305C11.1223 7.81065 11.1223 4.85587 9.2998 3.03342C7.4774 1.21097 4.52261 1.21097 2.70017 3.03342C0.87772 4.85587 0.87772 7.81065 2.70017 9.63305L6 12.9329L9.2998 9.63305ZM6 7.66659C5.2636 7.66659 4.66667 7.06965 4.66667 6.33325C4.66667 5.59687 5.2636 4.99992 6 4.99992C6.7364 4.99992 7.33333 5.59687 7.33333 6.33325C7.33333 7.06965 6.7364 7.66659 6 7.66659Z" fill="#6E6E6F"/>
</svg>
