<svg width="13" height="14" viewBox="0 0 13 14" fill="none" xmlns="http://www.w3.org/2000/svg">
<path d="M11.5783 5.66658H12.245C12.6132 5.66658 12.9117 5.96505 12.9117 6.33325V12.9999C12.9117 13.3681 12.6132 13.6666 12.245 13.6666H1.57832C1.21013 13.6666 0.911652 13.3681 0.911652 12.9999V6.33325C0.911652 5.96505 1.21013 5.66658 1.57832 5.66658H2.24498V4.99992C2.24498 2.42259 4.33433 0.333252 6.91165 0.333252C9.48899 0.333252 11.5783 2.42259 11.5783 4.99992V5.66658ZM2.24498 6.99992V12.3333H11.5783V6.99992H2.24498ZM6.24499 8.33325H7.57832V10.9999H6.24499V8.33325ZM10.245 5.66658V4.99992C10.245 3.15897 8.75258 1.66659 6.91165 1.66659C5.0707 1.66659 3.57832 3.15897 3.57832 4.99992V5.66658H10.245Z" fill="#6E6E6F"/>
</svg>
