<svg width="17" height="21" viewBox="0 0 17 21" fill="none" xmlns="http://www.w3.org/2000/svg">
<path d="M8.41165 15.9381V15.4966L7.97352 15.4419C4.27437 14.9807 1.41165 11.8242 1.41165 8C1.41165 3.85786 4.76951 0.5 8.91165 0.5C13.0538 0.5 16.4117 3.85786 16.4117 8C16.4117 11.8242 13.5489 14.9807 9.84978 15.4419L9.41165 15.4966V15.9381V18.0116V18.5L9.89996 18.5115C11.8539 18.5572 13.5713 18.7362 14.7884 18.9928C15.401 19.122 15.8606 19.2655 16.1553 19.4079C16.2254 19.4418 16.2803 19.4729 16.3225 19.5C16.2652 19.5369 16.1861 19.5799 16.0803 19.6268C15.7272 19.7833 15.185 19.9363 14.4764 20.0692C13.0673 20.3334 11.0996 20.5 8.91165 20.5C6.72371 20.5 4.75602 20.3334 3.34694 20.0692C2.6383 19.9363 2.09611 19.7833 1.74296 19.6268C1.63719 19.5799 1.55811 19.5369 1.50079 19.5C1.54303 19.4729 1.59792 19.4418 1.66804 19.4079C1.96269 19.2655 2.42226 19.122 3.03493 18.9928C4.25201 18.7362 5.96935 18.5572 7.92334 18.5115L8.41165 18.5V18.0116V15.9381ZM16.4342 19.4098C16.4342 19.4099 16.4338 19.4104 16.433 19.4115C16.4337 19.4104 16.4342 19.4098 16.4342 19.4098ZM1.38913 19.4098C1.38916 19.4098 1.38959 19.4104 1.3903 19.4115C1.38945 19.4104 1.38909 19.4098 1.38913 19.4098ZM1.38969 19.5894C1.38946 19.5898 1.38934 19.5899 1.38933 19.5899L1.38969 19.5894ZM8.91165 10.5C10.2924 10.5 11.4117 9.38074 11.4117 8C11.4117 6.61929 10.2924 5.5 8.91165 5.5C7.5309 5.5 6.41165 6.61929 6.41165 8C6.41165 9.38074 7.53091 10.5 8.91165 10.5Z" fill="#385A23" stroke="#4A782F"/>
</svg>
