<svg width="22" height="22" viewBox="0 0 22 22" fill="none" xmlns="http://www.w3.org/2000/svg">
<path d="M9.29037 1.47465L9.29035 1.47466L7.94231 2.62342L7.94231 2.62342C7.70206 2.82816 7.40335 2.95187 7.08872 2.97698L7.04894 2.47857L7.08872 2.97698L5.32322 3.11787C4.09945 3.21553 3.12768 4.18731 3.03003 5.41107L2.88914 7.17653C2.88914 7.17654 2.88914 7.17655 2.88914 7.17655C2.86403 7.49121 2.74028 7.78996 2.53555 8.0302C2.53555 8.0302 2.53555 8.0302 2.53554 8.0302L1.38679 9.3782C0.590498 10.3126 0.590523 11.6869 1.3868 12.6212L1.38682 12.6212L2.53558 13.9693L2.53563 13.9694C2.74027 14.2096 2.86401 14.5082 2.88913 14.8229M9.29037 1.47465L2.39071 14.8627M9.29037 1.47465C10.2247 0.678382 11.599 0.678357 12.5334 1.47467L13.8814 2.62335M9.29037 1.47465L13.8814 2.62335M2.88913 14.8229L2.39071 14.8627M2.88913 14.8229L2.88912 14.8229L2.39071 14.8627M2.88913 14.8229L3.03004 16.5883L2.53162 16.6281L2.39071 14.8627M13.8814 2.62335C13.8814 2.62337 13.8814 2.6234 13.8814 2.62342L13.8814 2.62335ZM7.08863 19.0225L7.04895 19.5209L7.08876 19.0225C7.08872 19.0225 7.08868 19.0225 7.08863 19.0225ZM7.94226 19.376L7.61796 19.7566L7.94229 19.3761C7.94228 19.376 7.94227 19.376 7.94226 19.376ZM13.8814 19.3761L14.2057 19.7566L13.8814 19.376C13.8814 19.3761 13.8814 19.3761 13.8814 19.3761ZM18.9345 14.823L19.4329 14.8627L18.9345 14.8229C18.9345 14.823 18.9345 14.823 18.9345 14.823ZM20.4369 12.6213L20.8174 12.9456L20.4369 12.6213C20.4369 12.6213 20.4369 12.6213 20.4369 12.6213ZM18.9346 7.17647L18.9346 7.17657L19.4331 7.13679L18.9346 7.17647ZM5.40277 4.1147L5.40277 4.1147L8.59094 3.38453C8.19052 3.72575 7.69268 3.93196 7.16825 3.97381L5.40277 4.1147ZM9.93891 2.23578L8.59095 3.38453L2.14792 10.0268C1.67016 10.5874 1.67014 11.412 2.14792 11.9726C2.14793 11.9726 2.14794 11.9726 2.14795 11.9726L3.29668 13.3206C3.63789 13.721 3.8441 14.2189 3.88598 14.7433C3.88599 14.7433 3.88599 14.7433 3.88599 14.7433L4.02686 16.5088C4.08543 17.2429 4.66843 17.8262 5.40279 17.8847C5.40281 17.8847 5.40284 17.8847 5.40286 17.8847L7.16823 18.0256L7.16825 18.0256C7.69261 18.0674 8.19051 18.2737 8.59093 18.6149L8.59095 18.615L9.93895 19.7637L9.93897 19.7637C10.4996 20.2414 11.3241 20.2414 11.8848 19.7637C11.8848 19.7637 11.8848 19.7636 11.8848 19.7636L13.2329 18.6149L12.9085 18.2343L13.2329 18.6149C13.6332 18.2737 14.131 18.0674 14.6554 18.0256L14.6554 18.0256L16.4209 17.8847L16.421 17.8847C17.1551 17.8261 17.7384 17.2431 17.7969 16.5087L17.9378 14.7433L17.9378 14.7433C17.9796 14.2188 18.1858 13.7211 18.527 13.3208L18.5271 13.3207L19.6757 11.9727C19.6758 11.9727 19.6758 11.9726 19.6758 11.9726C20.1538 11.4119 20.1535 10.5874 19.6758 10.0268L19.6758 10.0268L18.527 8.67878C18.1858 8.27838 17.9796 7.78056 17.9378 7.25614L17.9378 7.25612L17.7969 5.4907C17.7384 4.75631 17.1551 4.1733 16.4209 4.1147L16.3811 4.61312L16.4209 4.1147L14.6554 3.97382C14.1311 3.93198 13.6332 3.72575 13.2328 3.38452L11.8848 2.23578C11.8848 2.23577 11.8848 2.23577 11.8848 2.23576C11.3242 1.75801 10.4995 1.75799 9.93894 2.23576C9.93893 2.23577 9.93892 2.23578 9.93891 2.23578ZM3.29667 8.6788L2.14795 10.0268L4.52527 5.53041L4.02685 5.49063L4.02685 5.49064L3.88596 7.25615C3.84411 7.78054 3.63791 8.27835 3.29668 8.67879C3.29668 8.67879 3.29668 8.6788 3.29667 8.6788ZM7.37609 8.87845L7.37606 8.87842C6.98558 8.488 6.98554 7.85483 7.37608 7.46428C7.76661 7.07375 8.39977 7.07375 8.7903 7.46428L9.14385 7.11073L8.7903 7.46429C9.18085 7.85483 9.18081 8.488 8.79033 8.87842L8.79029 8.87845C8.39977 9.26898 7.76661 9.26898 7.37609 8.87845ZM14.4471 8.1714L8.0832 14.5354L7.37608 13.8282L13.74 7.46429L14.4471 8.1714ZM14.4471 14.5353C14.0566 14.9259 13.4234 14.9259 13.0329 14.5353C12.6424 14.1448 12.6424 13.5117 13.0329 13.1212C13.4234 12.7306 14.0566 12.7306 14.4471 13.1212C14.8376 13.5117 14.8376 14.1448 14.4471 14.5353Z" fill="#385A23" stroke="#4A782F"/>
</svg>
