<svg width="48" height="48" viewBox="0 0 48 48" fill="none" xmlns="http://www.w3.org/2000/svg">
<g clip-path="url(#clip0_1048_12034)">
<path d="M24 0C10.7663 0 0 10.7663 0 24C0 37.2337 10.7663 48 24 48C37.2337 48 48 37.2337 48 24C48 10.7663 37.2337 0 24 0ZM30.025 30.025H17.975V17.975H30.0249V30.025H30.025Z" fill="#FFBE3D"/>
<path d="M24 0V17.975H30.025V30.0249H24V48C37.2337 48 48 37.2337 48 24C48 10.7663 37.2337 0 24 0Z" fill="#FF9A38"/>
<path d="M23.9984 6.02344C14.087 6.02344 6.02344 14.087 6.02344 23.9984C6.02344 33.9098 14.087 41.9734 23.9984 41.9734C33.9098 41.9734 41.9734 33.9098 41.9734 23.9984C41.9734 14.087 33.9098 6.02344 23.9984 6.02344ZM30.0234 30.0234H17.9734V17.9734H30.0233V30.0234H30.0234Z" fill="#FFDF50"/>
<path d="M24 6.02344V17.9735H30.025V30.0234H24V41.9735C33.9114 41.9735 41.975 33.9098 41.975 23.9985C41.975 14.0872 33.9114 6.02344 24 6.02344Z" fill="#FFBE3D"/>
<path d="M30.0266 16.5703H17.9766C17.1999 16.5703 16.5703 17.1999 16.5703 17.9766V30.0265C16.5703 30.8032 17.1999 31.4328 17.9766 31.4328H30.0265C30.8032 31.4328 31.4328 30.8032 31.4328 30.0265V17.9766C31.4329 17.1999 30.8032 16.5703 30.0266 16.5703ZM28.6204 28.6204H19.3829V19.3829H28.6204V28.6204Z" fill="#FFBE3D"/>
<path d="M30.025 16.5703H24V19.3828H28.6188V28.6203H24V31.4328H30.025C30.8017 31.4328 31.4313 30.8032 31.4313 30.0265V17.9766C31.4313 17.1999 30.8017 16.5703 30.025 16.5703Z" fill="#FF9A38"/>
</g>
<defs>
<clipPath id="clip0_1048_12034">
<rect width="48" height="48" fill="white"/>
</clipPath>
</defs>
</svg>
