<svg width="16" height="16" viewBox="0 0 16 16" fill="none" xmlns="http://www.w3.org/2000/svg">
<path d="M8.00004 1.33325C11.6819 1.33325 14.6667 4.31802 14.6667 7.99992C14.6667 11.6818 11.6819 14.6666 8.00004 14.6666C4.31814 14.6666 1.33337 11.6818 1.33337 7.99992H2.66671C2.66671 10.9455 5.05452 13.3333 8.00004 13.3333C10.9456 13.3333 13.3334 10.9455 13.3334 7.99992C13.3334 5.0544 10.9456 2.66659 8.00004 2.66659C6.35747 2.66659 4.88833 3.40914 3.90999 4.57687L5.33337 5.99992H1.33337V1.99992L2.96441 3.6309C4.18672 2.22331 5.98944 1.33325 8.00004 1.33325ZM8.66671 4.66658L8.66657 7.72325L10.8284 9.88552L9.88564 10.8283L7.33324 8.27525L7.33337 4.66658H8.66671Z" fill="#555656"/>
</svg>
