<svg width="16" height="16" viewBox="0 0 16 16" fill="none" xmlns="http://www.w3.org/2000/svg">
<path d="M5.79096 2.66664L7.52871 0.928908C7.78904 0.668554 8.21118 0.668554 8.47151 0.928908L10.2092 2.66664H12.6668C13.035 2.66664 13.3334 2.96512 13.3334 3.33331V5.79083L15.0712 7.52859C15.3315 7.78892 15.3315 8.21105 15.0712 8.47139L13.3334 10.2091V12.6667C13.3334 13.0349 13.035 13.3333 12.6668 13.3333H10.2092L8.47151 15.0711C8.21118 15.3314 7.78904 15.3314 7.52871 15.0711L5.79096 13.3333H3.33343C2.96524 13.3333 2.66676 13.0349 2.66676 12.6667V10.2091L0.92903 8.47139C0.668676 8.21105 0.668676 7.78892 0.92903 7.52859L2.66676 5.79083V3.33331C2.66676 2.96512 2.96524 2.66664 3.33343 2.66664H5.79096ZM4.0001 3.99997V6.34312L2.34324 7.99999L4.0001 9.65685V12H6.34324L8.00011 13.6569L9.65698 12H12.0001V9.65685L13.657 7.99999L12.0001 6.34312V3.99997H9.65698L8.00011 2.34312L6.34324 3.99997H4.0001ZM8.00011 10.6667C6.52734 10.6667 5.33343 9.47272 5.33343 7.99999C5.33343 6.52721 6.52734 5.33331 8.00011 5.33331C9.47284 5.33331 10.6668 6.52721 10.6668 7.99999C10.6668 9.47272 9.47284 10.6667 8.00011 10.6667ZM8.00011 9.33332C8.73651 9.33332 9.33344 8.73639 9.33344 7.99999C9.33344 7.26359 8.73651 6.66665 8.00011 6.66665C7.26371 6.66665 6.66678 7.26359 6.66678 7.99999C6.66678 8.73639 7.26371 9.33332 8.00011 9.33332Z" fill="#6E6E6F"/>
</svg>
