<svg width="21" height="18" viewBox="0 0 21 18" fill="none" xmlns="http://www.w3.org/2000/svg">
<path d="M19.4166 7.99977V7.49977H18.9166H2.91653H2.41653V7.99977V15.9998V16.4998H2.91653H18.9166H19.4166V15.9998V7.99977ZM18.9166 6.49976H19.4166V5.99976V1.99976V1.49976H18.9166H2.91653H2.41653V1.99976V5.99976V6.49976H2.91653H18.9166ZM1.91653 0.499756H19.9166C20.1927 0.499756 20.4166 0.723605 20.4166 0.999756V16.9998C20.4166 17.2759 20.1927 17.4998 19.9166 17.4998H1.91653C1.64039 17.4998 1.41653 17.2759 1.41653 16.9998V0.999756C1.41653 0.723611 1.64039 0.499756 1.91653 0.499756ZM13.4166 12.4998H16.4166V13.4998H13.4166V12.4998Z" fill="#385A23" stroke="#4A782F"/>
</svg>
