<svg width="13" height="16" viewBox="0 0 13 16" fill="none" xmlns="http://www.w3.org/2000/svg">
<path d="M8.23832 5.8464L8.00765 12.3078M4.81565 12.3078L4.58499 5.8464M11.2303 3.54184C11.4583 3.57918 11.685 3.61866 11.9117 3.66102M11.2303 3.54184L10.5183 13.5089C10.4893 13.9147 10.319 14.2937 10.0417 14.5701C9.7643 14.8466 9.40025 15.0001 9.02232 15H3.80098C3.42305 15.0001 3.059 14.8466 2.78164 14.5701C2.50428 14.2937 2.33404 13.9147 2.30499 13.5089L1.59298 3.54184M11.2303 3.54184C10.4609 3.41658 9.6875 3.32151 8.91165 3.25683M1.59298 3.54184C1.36498 3.57846 1.13832 3.61795 0.911652 3.6603M1.59298 3.54184C2.36241 3.41658 3.13581 3.32151 3.91165 3.25683M8.91165 3.25683V2.5992C8.91165 1.75205 8.30499 1.0456 7.51832 1.01904C6.78073 0.993653 6.04257 0.993653 5.30499 1.01904C4.51832 1.0456 3.91165 1.75276 3.91165 2.5992V3.25683M8.91165 3.25683C7.24747 3.11832 5.57584 3.11832 3.91165 3.25683" stroke="#6E6E6F" stroke-width="1.5" stroke-linecap="round" stroke-linejoin="round"/>
</svg>
