<svg width="12" height="15" viewBox="0 0 12 15" fill="none" xmlns="http://www.w3.org/2000/svg">
<path d="M0.666626 14.6667C0.666626 11.7212 3.05444 9.33342 5.99996 9.33342C8.94549 9.33342 11.3333 11.7212 11.3333 14.6667H9.99996C9.99996 12.4576 8.20909 10.6667 5.99996 10.6667C3.79082 10.6667 1.99996 12.4576 1.99996 14.6667H0.666626ZM5.99996 8.66675C3.78996 8.66675 1.99996 6.87675 1.99996 4.66675C1.99996 2.45675 3.78996 0.666748 5.99996 0.666748C8.20996 0.666748 9.99996 2.45675 9.99996 4.66675C9.99996 6.87675 8.20996 8.66675 5.99996 8.66675ZM5.99996 7.33342C7.47329 7.33342 8.66663 6.14008 8.66663 4.66675C8.66663 3.19341 7.47329 2.00008 5.99996 2.00008C4.52663 2.00008 3.33329 3.19341 3.33329 4.66675C3.33329 6.14008 4.52663 7.33342 5.99996 7.33342Z" fill="#6E6E6F"/>
</svg>
