<svg width="17" height="21" viewBox="0 0 17 21" fill="none" xmlns="http://www.w3.org/2000/svg">
<path d="M1.42805 20.5C1.68535 16.591 4.93753 13.5 8.91165 13.5C12.8858 13.5 16.138 16.591 16.3952 20.5H15.3927C15.1374 17.1438 12.3333 14.5 8.91165 14.5C5.49004 14.5 2.68591 17.1438 2.4306 20.5H1.42805ZM8.91165 11.5C5.87279 11.5 3.41165 9.03886 3.41165 6C3.41165 2.96114 5.87279 0.5 8.91165 0.5C11.9505 0.5 14.4117 2.96114 14.4117 6C14.4117 9.03886 11.9505 11.5 8.91165 11.5ZM8.91165 10.5C11.3978 10.5 13.4117 8.48614 13.4117 6C13.4117 3.51386 11.3978 1.5 8.91165 1.5C6.42551 1.5 4.41165 3.51386 4.41165 6C4.41165 8.48614 6.42551 10.5 8.91165 10.5Z" fill="#385A23" stroke="#4A782F"/>
</svg>
